# xmcd
#
# Track frame offsets: 
#        150
#        11455
#        21862
#        32515
#        43412
#        53810
#        64550
#        76312
#        85785
#        97235
#        107952
#        117927
#        129912
#        139650
#        150780
#        161995
#        172287
#        183552
#        197202
#        207167
#        218675
#        228802
#        240805
#        249280
#        262230
#        272187
#        281922
#        291107
#        305560
#        315275
#        325307
#
# Disc length: 4473 seconds
#
# Revision: 2
# Processed by: cddbd v1.5.2PL0 Copyright (c) Steve Scherf et al.
# Submitted via: ExactAudioCopy v1.3
#
DISCID=b911771f
DTITLE=Speedy West and Jimmy Bryant - Flamin' Guitars_CD2
DYEAR=1997
DGENRE=Instrumental
TTITLE0=Jammin´ With Jimmy
TTITLE1=Two Of A Kind
TTITLE2=Sunset
TTITLE3=Steel Guitar Rag
TTITLE4=Swingin´ On The Strings
TTITLE5=Old Joe Clark
TTITLE6=This Is Southland
TTITLE7=Arkansas Traveler
TTITLE8=Blue Bonnet Rag
TTITLE9=Hop, Skip And Jump
TTITLE10=Country Capers
TTITLE11=Low Man On A Totem Pole
TTITLE12=Sleep Walker´s Lullaby
TTITLE13=Our Paradise
TTITLE14=Cotton Pickin´
TTITLE15=Bustin´ Thru
TTITLE16=Flippin´ The Lid
TTITLE17=Deep Water
TTITLE18=Stratosphere Boogie
TTITLE19=West Of Samoa
TTITLE20=Shuffleboard Rag
TTITLE21=Steelin´ Moonlight
TTITLE22=Caffeine Patrol
TTITLE23=Yankee Clover
TTITLE24=Pickin´ Peppers
TTITLE25=Chatter Box
TTITLE26=Frettin´ Fingers
TTITLE27=Pushin´ The Blues
TTITLE28=Sand Canyon Swing
TTITLE29=Water Baby Blues
TTITLE30=Shawnee Trot
EXTD=
EXTT0=
EXTT1=
EXTT2=
EXTT3=
EXTT4=
EXTT5=
EXTT6=
EXTT7=
EXTT8=
EXTT9=
EXTT10=
EXTT11=
EXTT12=
EXTT13=
EXTT14=
EXTT15=
EXTT16=
EXTT17=
EXTT18=
EXTT19=
EXTT20=
EXTT21=
EXTT22=
EXTT23=
EXTT24=
EXTT25=
EXTT26=
EXTT27=
EXTT28=
EXTT29=
EXTT30=
PLAYORDER=
